<svg width="256" height="256" viewBox="0 0 256 256" fill="none" xmlns="http://www.w3.org/2000/svg">
<g clip-path="url(#clip0_3_4)">
<circle cx="128" cy="128" r="128" fill="#D9D9D9"/>
<path d="M66 177.188C59.2917 177.188 54.3542 176.625 51.1875 175.5C48.0208 174.417 45.9583 172.771 45 170.562C44.0833 168.396 43.625 165.708 43.625 162.5C43.625 159.5 43.9375 156.667 44.5625 154C45.2292 151.333 45.875 148.771 46.5 146.312C47.1667 143.812 47.5 141.354 47.5 138.938C47.5 137.354 46.9792 136.104 45.9375 135.188C44.9375 134.271 42.8958 133.812 39.8125 133.812C38.8958 133.812 38.1667 133.417 37.625 132.625C37.125 131.792 36.875 130.896 36.875 129.938C36.875 129.062 37.1042 128.271 37.5625 127.562C38.0208 126.812 38.7708 126.438 39.8125 126.438C42.8958 126.438 44.9375 126.083 45.9375 125.375C46.9792 124.625 47.5 123.479 47.5 121.938C47.5 119.521 47.1667 117.083 46.5 114.625C45.875 112.125 45.2292 109.542 44.5625 106.875C43.9375 104.167 43.625 101.333 43.625 98.375C43.625 95.125 44.0833 92.4167 45 90.25C45.9583 88.0417 48.0208 86.3958 51.1875 85.3125C54.3542 84.1875 59.2917 83.625 66 83.625C66.5833 83.625 67.0208 83.8958 67.3125 84.4375C67.6042 84.9792 67.75 85.5833 67.75 86.25C67.75 86.9167 67.6042 87.5208 67.3125 88.0625C67.0208 88.6042 66.5833 88.875 66 88.875C59.8333 88.875 55.5417 89.4375 53.125 90.5625C50.75 91.6875 49.5625 93.7917 49.5625 96.875C49.5625 99.3333 49.875 101.979 50.5 104.812C51.125 107.646 51.75 110.521 52.375 113.438C53 116.354 53.3125 119.167 53.3125 121.875C53.3125 123.792 53.0625 125.521 52.5625 127.062C52.1042 128.562 50.5 129.583 47.75 130.125C50.5 130.75 52.1042 131.896 52.5625 133.562C53.0625 135.229 53.3125 137.021 53.3125 138.938C53.3125 141.604 53 144.417 52.375 147.375C51.75 150.292 51.125 153.167 50.5 156C49.875 158.833 49.5625 161.479 49.5625 163.938C49.5625 166.979 50.75 169.062 53.125 170.188C55.5417 171.354 59.8333 171.938 66 171.938C66.5833 171.938 67.0208 172.208 67.3125 172.75C67.6042 173.292 67.75 173.896 67.75 174.562C67.75 175.229 67.6042 175.833 67.3125 176.375C67.0208 176.917 66.5833 177.188 66 177.188ZM110.375 163C109.333 163 108.521 162.708 107.938 162.125C107.396 161.542 107.125 160.917 107.125 160.25C107.125 159.583 107.375 158.979 107.875 158.438C108.417 157.896 109.208 157.625 110.25 157.625H125.375V95.1875H103.625L102.875 112.125C102.833 113.083 102.542 113.792 102 114.25C101.5 114.708 100.938 114.938 100.312 114.938C99.5625 114.938 98.8542 114.646 98.1875 114.062C97.5625 113.479 97.25 112.646 97.25 111.562V93.1875C97.25 90.9375 98.125 89.8125 99.875 89.8125H157.125C158.792 89.8125 159.625 90.9375 159.625 93.1875V111.562C159.625 112.646 159.312 113.458 158.688 114C158.104 114.542 157.458 114.812 156.75 114.812C156.083 114.812 155.479 114.583 154.938 114.125C154.396 113.667 154.083 113 154 112.125L153.375 95.1875H131.375V157.625H146.5C147.5 157.625 148.25 157.896 148.75 158.438C149.292 158.979 149.562 159.583 149.562 160.25C149.562 160.917 149.292 161.542 148.75 162.125C148.208 162.708 147.417 163 146.375 163H110.375ZM192.938 177.188C192.354 177.188 191.917 176.917 191.625 176.375C191.333 175.833 191.188 175.229 191.188 174.562C191.188 173.896 191.333 173.292 191.625 172.75C191.917 172.208 192.354 171.938 192.938 171.938C199.104 171.938 203.375 171.354 205.75 170.188C208.167 169.062 209.375 166.979 209.375 163.938C209.375 161.479 209.062 158.833 208.438 156C207.812 153.167 207.188 150.292 206.562 147.375C205.938 144.417 205.625 141.604 205.625 138.938C205.625 137.021 205.854 135.312 206.312 133.812C206.812 132.271 208.438 131.229 211.188 130.688C208.438 130.062 206.812 128.917 206.312 127.25C205.854 125.583 205.625 123.792 205.625 121.875C205.625 119.167 205.938 116.354 206.562 113.438C207.188 110.521 207.812 107.646 208.438 104.812C209.062 101.979 209.375 99.3333 209.375 96.875C209.375 93.7917 208.167 91.6875 205.75 90.5625C203.375 89.4375 199.104 88.875 192.938 88.875C192.354 88.875 191.917 88.6042 191.625 88.0625C191.333 87.5208 191.188 86.9167 191.188 86.25C191.188 85.5833 191.333 84.9792 191.625 84.4375C191.917 83.8958 192.354 83.625 192.938 83.625C199.646 83.625 204.583 84.1875 207.75 85.3125C210.917 86.3958 212.958 88.0208 213.875 90.1875C214.833 92.3542 215.312 95.0625 215.312 98.3125C215.312 101.271 214.979 104.104 214.312 106.812C213.688 109.479 213.042 112.062 212.375 114.562C211.75 117.021 211.438 119.458 211.438 121.875C211.438 123.417 211.958 124.667 213 125.625C214.042 126.542 216.083 127 219.125 127C220.083 127 220.812 127.417 221.312 128.25C221.812 129.042 222.062 129.917 222.062 130.875C222.062 131.75 221.833 132.562 221.375 133.312C220.917 134.021 220.167 134.375 219.125 134.375C216.083 134.375 214.042 134.729 213 135.438C211.958 136.146 211.438 137.292 211.438 138.875C211.438 141.292 211.75 143.75 212.375 146.25C213.042 148.708 213.688 151.271 214.312 153.938C214.979 156.604 215.312 159.438 215.312 162.438C215.312 165.646 214.833 168.354 213.875 170.562C212.958 172.771 210.917 174.417 207.75 175.5C204.583 176.625 199.646 177.188 192.938 177.188Z" fill="#B37C23"/>
</g>
<defs>
<clipPath id="clip0_3_4">
<rect width="256" height="256" fill="white"/>
</clipPath>
</defs>
</svg>
