<svg width="256" height="256" viewBox="0 -64 256 256" fill="none" xmlns="http://www.w3.org/2000/svg">
<g clip-path="url(#clip0_1_4)">
<path d="M66 178.188C59.2917 178.188 54.3542 177.625 51.1875 176.5C48.0208 175.417 45.9583 173.771 45 171.562C44.0833 169.396 43.625 166.708 43.625 163.5C43.625 160.5 43.9375 157.667 44.5625 155C45.2292 152.333 45.875 149.771 46.5 147.312C47.1667 144.812 47.5 142.354 47.5 139.938C47.5 138.354 46.9792 137.104 45.9375 136.188C44.9375 135.271 42.8958 134.812 39.8125 134.812C38.8958 134.812 38.1667 134.417 37.625 133.625C37.125 132.792 36.875 131.896 36.875 130.938C36.875 130.062 37.1042 129.271 37.5625 128.562C38.0208 127.812 38.7708 127.438 39.8125 127.438C42.8958 127.438 44.9375 127.083 45.9375 126.375C46.9792 125.625 47.5 124.479 47.5 122.938C47.5 120.521 47.1667 118.083 46.5 115.625C45.875 113.125 45.2292 110.542 44.5625 107.875C43.9375 105.167 43.625 102.333 43.625 99.375C43.625 96.125 44.0833 93.4167 45 91.25C45.9583 89.0417 48.0208 87.3958 51.1875 86.3125C54.3542 85.1875 59.2917 84.625 66 84.625C66.5833 84.625 67.0208 84.8958 67.3125 85.4375C67.6042 85.9792 67.75 86.5833 67.75 87.25C67.75 87.9167 67.6042 88.5208 67.3125 89.0625C67.0208 89.6042 66.5833 89.875 66 89.875C59.8333 89.875 55.5417 90.4375 53.125 91.5625C50.75 92.6875 49.5625 94.7917 49.5625 97.875C49.5625 100.333 49.875 102.979 50.5 105.812C51.125 108.646 51.75 111.521 52.375 114.438C53 117.354 53.3125 120.167 53.3125 122.875C53.3125 124.792 53.0625 126.521 52.5625 128.062C52.1042 129.562 50.5 130.583 47.75 131.125C50.5 131.75 52.1042 132.896 52.5625 134.562C53.0625 136.229 53.3125 138.021 53.3125 139.938C53.3125 142.604 53 145.417 52.375 148.375C51.75 151.292 51.125 154.167 50.5 157C49.875 159.833 49.5625 162.479 49.5625 164.938C49.5625 167.979 50.75 170.062 53.125 171.188C55.5417 172.354 59.8333 172.938 66 172.938C66.5833 172.938 67.0208 173.208 67.3125 173.75C67.6042 174.292 67.75 174.896 67.75 175.562C67.75 176.229 67.6042 176.833 67.3125 177.375C67.0208 177.917 66.5833 178.188 66 178.188ZM110.375 164C109.333 164 108.521 163.708 107.938 163.125C107.396 162.542 107.125 161.917 107.125 161.25C107.125 160.583 107.375 159.979 107.875 159.438C108.417 158.896 109.208 158.625 110.25 158.625H125.375V96.1875H103.625L102.875 113.125C102.833 114.083 102.542 114.792 102 115.25C101.5 115.708 100.938 115.938 100.312 115.938C99.5625 115.938 98.8542 115.646 98.1875 115.062C97.5625 114.479 97.25 113.646 97.25 112.562V94.1875C97.25 91.9375 98.125 90.8125 99.875 90.8125H157.125C158.792 90.8125 159.625 91.9375 159.625 94.1875V112.562C159.625 113.646 159.312 114.458 158.688 115C158.104 115.542 157.458 115.812 156.75 115.812C156.083 115.812 155.479 115.583 154.938 115.125C154.396 114.667 154.083 114 154 113.125L153.375 96.1875H131.375V158.625H146.5C147.5 158.625 148.25 158.896 148.75 159.438C149.292 159.979 149.562 160.583 149.562 161.25C149.562 161.917 149.292 162.542 148.75 163.125C148.208 163.708 147.417 164 146.375 164H110.375ZM192.938 178.188C192.354 178.188 191.917 177.917 191.625 177.375C191.333 176.833 191.188 176.229 191.188 175.562C191.188 174.896 191.333 174.292 191.625 173.75C191.917 173.208 192.354 172.938 192.938 172.938C199.104 172.938 203.375 172.354 205.75 171.188C208.167 170.062 209.375 167.979 209.375 164.938C209.375 162.479 209.062 159.833 208.438 157C207.812 154.167 207.188 151.292 206.562 148.375C205.938 145.417 205.625 142.604 205.625 139.938C205.625 138.021 205.854 136.312 206.312 134.812C206.812 133.271 208.438 132.229 211.188 131.688C208.438 131.062 206.812 129.917 206.312 128.25C205.854 126.583 205.625 124.792 205.625 122.875C205.625 120.167 205.938 117.354 206.562 114.438C207.188 111.521 207.812 108.646 208.438 105.812C209.062 102.979 209.375 100.333 209.375 97.875C209.375 94.7917 208.167 92.6875 205.75 91.5625C203.375 90.4375 199.104 89.875 192.938 89.875C192.354 89.875 191.917 89.6042 191.625 89.0625C191.333 88.5208 191.188 87.9167 191.188 87.25C191.188 86.5833 191.333 85.9792 191.625 85.4375C191.917 84.8958 192.354 84.625 192.938 84.625C199.646 84.625 204.583 85.1875 207.75 86.3125C210.917 87.3958 212.958 89.0208 213.875 91.1875C214.833 93.3542 215.312 96.0625 215.312 99.3125C215.312 102.271 214.979 105.104 214.312 107.812C213.688 110.479 213.042 113.062 212.375 115.562C211.75 118.021 211.438 120.458 211.438 122.875C211.438 124.417 211.958 125.667 213 126.625C214.042 127.542 216.083 128 219.125 128C220.083 128 220.812 128.417 221.312 129.25C221.812 130.042 222.062 130.917 222.062 131.875C222.062 132.75 221.833 133.562 221.375 134.312C220.917 135.021 220.167 135.375 219.125 135.375C216.083 135.375 214.042 135.729 213 136.438C211.958 137.146 211.438 138.292 211.438 139.875C211.438 142.292 211.75 144.75 212.375 147.25C213.042 149.708 213.688 152.271 214.312 154.938C214.979 157.604 215.312 160.438 215.312 163.438C215.312 166.646 214.833 169.354 213.875 171.562C212.958 173.771 210.917 175.417 207.75 176.5C204.583 177.625 199.646 178.188 192.938 178.188Z" fill="#B37C23"/>
</g>
<defs>
<clipPath id="clip0_1_4">
<rect width="256" height="256" fill="white"/>
</clipPath>
</defs>
</svg>
